<?xml version="1.0" encoding="UTF-8"?>
<svg id="Calque_2" data-name="Calque 2" xmlns="http://www.w3.org/2000/svg" viewBox="0 0 1928.82 1081.38">
  <defs>
    <style>
      .cls-1 {
        fill: #fff;
        fill-rule: evenodd;
      }
    </style>
  </defs>
  <g id="Layer_1" data-name="Layer 1">
    <path class="cls-1" d="M0,0c1.33.19.99-.02,1.66.66.95,1.61,1.13,3.72.33,5.3H0V0ZM39.4,0h92.71c-3.75,24.39-7.51,48.79-11.26,73.18-40.28,10.26-80.57,20.53-120.86,30.79v-55.3c11.26-5.74,22.52-11.48,33.77-17.22,3.63-2.12,9.45-3.03,11.59-6.62-1.99-8.28-3.97-16.56-5.96-24.83ZM395.68,0h76.16c-3.64,2.87-7.28,5.74-10.93,8.61-10.63,8.21-26.7,19.38-34.77,29.8-2.76,5.41-5.52,10.82-8.28,16.22-6.04,11.88-12.12,23.89-17.22,36.75,2.34,4.65,16.05,14.75,20.86,17.55l1.32-.33c1.55-3.86,3.09-7.73,4.64-11.59,6.3-15.23,13.05-29.41,21.85-42.05,2.7-3.88,6.21-12.75,10.93-14.24l.33.33c0,7.87,3.32,14.94,5.3,21.52,1.99,8.83,3.97,17.66,5.96,26.49,1.11,4.42,4.79,13.37,2.98,17.55-32.45,11.48-64.9,22.96-97.35,34.44-6.76,4.65-12.17,14.36-17.22,20.86-3.65,4.7-16.73,15.47-17.55,20.2h.33c9.54-6.27,23.86-8.27,34.77-12.58,31.34-11.15,62.69-22.3,94.04-33.44,12.29-4.79,27.94-6.39,38.74-13.24-11.04-40.94-22.08-81.9-33.11-122.84h57.94c6.84,35.76,13.69,71.52,20.53,107.28,1.65,7.15,8.3,34.65,6.95,40.4-22.4,8.06-44.81,16.12-67.22,24.17-41.39,15.01-82.78,30.02-124.17,45.03-15.45,5.63-30.91,11.26-46.36,16.89-5.38,2.08-18.56,4.64-21.85,8.28,19.86,94.25,39.74,188.52,59.6,282.77l.66.33c41.27-8.72,82.56-17.44,123.84-26.16,44.15-10.47,89.7-15.34,135.43-24.5,15.45-2.32,30.91-4.64,46.36-6.95,1.24-4.97-2.94-14.31-4.3-19.2-3.75-15.56-7.51-31.13-11.26-46.69-15.34-62.02-30.68-124.06-46.02-186.09l-.99-.33c-5.2,1.62-14.48,2.2-18.21,5.63,10.37,54.08,20.75,108.17,31.12,162.25,2.65,14.13,5.3,28.26,7.95,42.38.95,4.39,4.11,13.14,2.32,17.22-7.53.68-32.85,6.39-37.42,4.64-3.64-14.35-7.28-28.7-10.93-43.04-8.06-28.5-13.9-57.1-22.18-84.77-6.18-24.28-12.36-48.57-18.54-72.84h-.33c-13.24,4.08-26.49,8.17-39.73,12.25-24.45,7.75-48.95,14.69-72.18,23.84-8.61,3.09-17.22,6.18-25.83,9.27-2.03.79-6.82,1.09-7.62,2.98,6.18,44.48,12.36,88.96,18.54,133.44l.66.99c22.18-2.1,44.37-4.19,66.55-6.29,8.09-1.26,25.44.53,31.12-2.98l.99-.99c-1.21-8.06-2.43-16.12-3.64-24.17-2.98-14.9-5.96-29.8-8.94-44.7l-.66-.33c-7.1.67-28.33,7.4-34.1,10.6,1.88,9.38,3.75,18.76,5.63,28.14l-.33.33c-7.73.33-15.45.66-23.18.99l-.66-.66c-2.87-16.44-5.74-32.89-8.61-49.34-1.1-7.06-2.21-14.13-3.31-21.19,20.2-4.3,40.4-8.61,60.59-12.91,3.51-.82,18.18-4.24,19.54-2.65,11.81,42.93,23.62,85.87,35.43,128.8-5.5,3.01-12.43,4.25-18.87,6.29-16.51,5.23-33.58,9.9-50.66,15.23-20.86,5.96-41.72,11.92-62.58,17.88-9.38,2.54-18.76,5.08-28.14,7.62l-.66-.66c-1.88-11.15-3.75-22.3-5.63-33.44-5.65-25.73-8.44-51.57-14.24-76.49-4.97-26.38-9.93-52.76-14.9-79.14-1.88-9.05-3.75-18.1-5.63-27.15,3.61-3.75,12.03-4.6,17.22-6.62,15.23-5.63,30.46-11.26,45.69-16.89,45.25-16.66,90.51-33.33,135.76-50,13.46-4.97,26.93-9.93,40.4-14.9,5.24-2.07,11.7-3.08,15.89-6.29-11.26-55.84-22.52-111.7-33.77-167.54h49c10.48,39.73,20.97,79.47,31.46,119.2h.33c4.54-.6,27.61-11.05,29.47-13.91-11.37-35.09-22.74-70.2-34.1-105.29h42.38c9.6,21.74,19.21,43.49,28.81,65.23,2.44,5.7,5.91,19.95,9.93,23.51,10.37-3.97,20.75-7.95,31.12-11.92-15.12-25.49-30.24-50.99-45.36-76.49v-.33h36.09c8.28,16.66,16.56,33.33,24.83,50,2.25,5.09,5.16,15.6,9.6,18.54,5.89-2.67,28.01-9.05,31.12-12.58-9.27-18.65-18.54-37.31-27.81-55.96h49.67c3.64,8.5,7.28,17,10.93,25.5,8.42-.3,17.14-4.65,24.5-6.95,18.95-5.92,37.77-12.28,55.3-18.54h175.16c-1.66,21.52-3.31,43.05-4.97,64.57-.64,3.96-1.72,19.03-.33,20.53,10.33-3.02,28.07-3.32,36.75-8.28,2.98-25.6,5.96-51.21,8.94-76.82h60.59c-6.4,14.79-12.8,29.58-19.2,44.37-.87,2.08-6.9,12.59-5.96,14.9,19.09,15.01,38.19,30.02,57.28,45.03,45.45,34.38,90.19,70.06,136.42,103.97,13.13,9.6,26.27,19.21,39.4,28.81,4.42,3.16,9.53,9.61,15.56,10.6,15.4-7.69,31.56-23.33,45.69-33.44,31.97-22.87,62.5-47.31,93.71-70.86,19.2-14.79,38.41-29.58,57.61-44.37,4.75-13.8,9.49-27.59,14.24-41.39l-.66-.66c-.22.22-.44.44-.66.66-4.86,3.09-9.71,6.18-14.57,9.27-12.35,7.75-24.53,15.24-36.42,23.18-36.34,24.26-71.44,49.64-106.95,74.83-14.02,10.26-28.04,20.53-42.05,30.79-4.47,3.26-10.7,10.94-16.89,11.59-50.43-38.29-100.88-76.6-151.32-114.9-11.92-8.83-23.84-17.66-35.76-26.49-4.55-3.25-10.12-5.93-13.58-10.26,5.08-18.54,10.15-37.09,15.23-55.63h32.78v.33c-1.91,5.03-11.25,25.18-10.6,28.48,47.57,40.94,95.14,81.9,142.71,122.84,5.38-.72,10.81-6.54,14.9-9.27,11.26-7.39,22.52-14.79,33.77-22.18,39.29-25.6,78.59-51.21,117.88-76.82,12.14-7.84,24.28-15.67,36.42-23.51,4.12-2.6,12.09-5.47,14.57-9.6-.44-3.42-.88-6.84-1.32-10.26h115.56c-12.58,37.08-25.17,74.17-37.75,111.25,4.86,2.43,9.71,4.86,14.57,7.28,13.68,6.62,27.37,13.25,41.06,19.87,52.97,24.94,105.96,49.89,158.93,74.83-1.32,7.06-2.65,14.13-3.97,21.19h-1.32c-21.96-7.39-43.93-14.79-65.89-22.18-31.01-10.15-62.03-20.31-93.04-30.46-17.33-5.52-34.66-11.04-51.98-16.56-6.33-1.98-13-5.7-20.53-5.96-3.53,7.95-7.06,15.89-10.6,23.84,42.27,15.78,84.55,31.57,126.82,47.35,46.79,17.99,93.6,35.98,140.39,53.97v47.35c-42.71-14.46-85.43-28.92-128.14-43.38,5.74,20.31,11.48,40.62,17.22,60.92,8.72,3.2,17.44,6.4,26.16,9.6,19.98,7.95,39.96,15.89,59.93,23.84,8.28,3.31,16.56,6.62,24.83,9.93v44.04c-12.25-3.53-24.5-7.06-36.75-10.6l-.33.66c11.21,22.42,25.24,44.01,37.08,65.56v250.98c0,4.94,1.28,21.73-.66,24.5h-.33c-.64-7.45-4.18-14.94-6.62-21.19-3.64-10.15-7.28-20.31-10.93-30.46-1.81-4.92-3.52-15.82-7.62-18.54-29.38,11.24-57.25,25.03-85.43,37.42-10.15,4.64-20.31,9.27-30.46,13.91,11.81,23.51,23.62,47.02,35.43,70.53,27.81,54.41,55.63,108.83,83.44,163.24,1.2-.21,1-.13,1.66-.66,6.84-5.74,13.69-11.48,20.53-17.22h.99v115.89h-14.24c-.22-.77-.44-1.55-.66-2.32h-.33c-8.71,2.84-22.98,2.32-35.1,2.32h-254.3v-.99c13.24-11.7,26.49-23.4,39.73-35.1-8.17-16.89-16.34-33.78-24.5-50.66-11.15-23.29-22.3-46.58-33.44-69.86-7.28-14.46-14.57-28.92-21.85-43.38-8.28-16.89-16.56-33.78-24.83-50.66-5.3,2.21-10.6,4.42-15.89,6.62-15.14,6.62-29.93,13.25-44.37,20.2-3.45,1.66-17.31,6.36-17.88,9.6,34.65,71.18,69.32,142.39,103.97,213.57l-.33.66h-62.58c-11.7-53.41-23.4-106.84-35.1-160.26l-.66-.33c-63.79,9.93-127.6,19.87-191.38,29.8-21.85,3.2-43.71,6.4-65.56,9.6-8.66,1.66-20.98.71-28.14,4.64-4.3,10.82-8.61,21.63-12.91,32.45-6.95,18.87-13.91,37.75-20.86,56.62-3.31,9.16-6.62,18.32-9.93,27.48h-202.97c.22-2.95,1.08-5.97,0-8.28-18.32-6.07-36.65-12.14-54.96-18.21-2.93,4.95-6.82,19.99-7.28,26.49h-40.06c8.5-58.6,17-117.22,25.5-175.82,3.09-22.18,6.18-44.37,9.27-66.55-2.58-3.09-23.23-5.3-28.81-6.62-22.29-4.97-44.59-9.93-66.88-14.9-4.84-1.25-20.59-6.35-24.5-4.64-6.84,63.57-13.69,127.15-20.53,190.72-2.98,16-5.96,32.01-8.94,48.01-1.28,5.95-4.35,16.28-2.65,22.85h.33c18.38-5.28,48.82-37.32,53.64-56.29,2.43-21.74,4.86-43.49,7.28-65.23,2.25-13.6,1.69-28.17,3.97-42.71,2.53-16.13,3.27-33.91,3.31-51.32,12.03,3.2,24.06,6.4,36.09,9.6l.33.66c-.88,10.37-1.77,20.75-2.65,31.12-1.21,12.03-2.43,24.06-3.64,36.09-5.46,31.7-5.97,62.62-12.25,92.71-3.31,17.44-6.62,34.88-9.93,52.32h-169.86c-4.38,0-11.01.78-14.24-.66l.33-.66c6.64-2.05,12.21-8.15,17.55-11.92,15.08-10.64,30.12-21.25,45.03-31.79,6.28-4.44,21.23-12.4,24.83-18.54-5.85-12.03-11.7-24.06-17.55-36.09-11.87-20.39-21.39-42.41-32.45-62.91-6.6-12.23-12.37-24.69-19.2-36.42-2.21-4.19-4.42-8.39-6.62-12.58-58.71,25.71-117.44,51.44-176.15,77.15-14.46,6.07-28.92,12.14-43.38,18.21-6.55,2.79-17,4.82-21.85,9.6.52,5.01,4.55,9.85,6.62,13.91,4.3,8.94,8.61,17.88,12.91,26.82,6.99-.37,13.83-5.46,19.54-7.95,15.01-6.51,30.02-13.02,45.03-19.54,49.44-21.63,98.9-43.27,148.34-64.9,4.28,3.17,8.2,16.45,10.93,21.85,9.49,20.2,18.98,40.4,28.48,60.59-3.79,5.65-16.58,12.35-22.52,16.56-16.26,11.53-34.61,27.74-52.32,36.75v1.32c3.76,2.83,17.86,17.06,19.2,21.19h-58.94c-2.6-7.65-11.35-14.98-16.22-21.19-1.55-1.66-3.09-3.31-4.64-4.97-.63-2.44,18.16-11.47,21.19-13.24,24.83-14.02,49.67-28.04,74.5-42.05-.72-5.34-11.36-25.31-14.9-28.14-25.93,12.91-51.88,25.83-77.81,38.74-5.62,2.87-22.68,8.39-25.5,12.91,2.42,5.92,16.66,30.58,14.57,35.43-9.05,3.42-18.1,6.84-27.15,10.26.83,4.64,4.18,7.03,4.64,12.25h-82.45c-4.64-9.05-9.27-18.1-13.91-27.15-11.56-22.66-23.41-44.41-36.09-65.56-12.91-22.62-25.83-45.25-38.74-67.88-40.28,17.33-80.57,34.66-120.86,51.98-10.48,4.52-20.97,9.05-31.46,13.58-5.48,2.35-11.98,4-15.89,7.95.07,30.02-1.92,58.29-1.99,87.08h-61.26c2.87-53.52,5.74-107.07,8.61-160.59-36.42-7.17-72.85-14.35-109.27-21.52v-31.46c4.75.66,9.49,1.32,14.24,1.99,16.56,2.66,32.51-2.67,44.04-6.29,4.61-1.44,13.59-2.87,15.89-6.62,2.69-8.32-5.78-41.03-7.95-48.34-8.97-30.24-19.81-58.32-36.09-81.45-7.61-9.16-15.23-18.32-22.85-27.48-2.43-2.43-4.86-4.86-7.28-7.28v-201.32c.77-5.19,1.55-10.38,2.32-15.56,2.32-17.33,4.64-34.66,6.95-51.98,6.51-44.14,13.02-88.3,19.54-132.45,1.55-13.02,3.09-26.05,4.64-39.07,1.55-20.09,3.09-40.18,4.64-60.26.7-3.55,1.39-15.89.33-16.56-8.5,12.69-17,25.39-25.5,38.08-2.54,3.09-5.08,6.18-7.62,9.27-1.66,13.68-3.31,27.37-4.97,41.06h-.33v-126.49c20.2-5.08,40.4-10.15,60.59-15.23,15.34-1.55,30.68-3.09,46.02-4.64,7.17-1.2,39.59-1.41,42.38-4.64,1.99-11.04,3.97-22.08,5.96-33.11,4.41-26.27,8.83-52.54,13.24-78.81h32.45c-2.54,8.5-5.08,17-7.62,25.5-.77,2.98-1.55,5.96-2.32,8.94,11.59,6.07,23.18,12.14,34.77,18.21,26.74,15.6,55.71,28.45,85.1,41.06,9.01,3.86,26.2,13.7,36.09,14.57,10.48-11.7,20.97-23.4,31.46-35.1,5.85-24.39,11.7-48.79,17.55-73.18ZM205.62,0h66.55c9.19,4.92,18.77,10.29,28.48,15.23,3.42,1.74,6.66,4.64,11.26,4.97,3.31-6.73,6.62-13.47,9.93-20.2h41.72v.33c-6.62,24.5-13.25,49.01-19.87,73.51-32.31-16.41-66.55-32.49-97.68-50.66-9.93-5.63-19.87-11.26-29.8-16.89-3.53-2.1-7.06-4.19-10.6-6.29ZM1310.88,0h27.81c2.74,5.05,15.51,12.53,20.53,16.22,15.67,12.36,31.35,24.72,47.02,37.08h1.99c4.3-3.2,8.61-6.4,12.91-9.6,11.57-8.29,23.31-16.53,35.1-24.83,8.72-6.29,17.44-12.58,26.16-18.87h76.82c-2.79,3.48-7.49,5.44-11.26,7.95-8.83,5.85-17.66,11.7-26.49,17.55-26.82,17.66-53.64,35.32-80.46,52.98-6.8,4.53-34.48,25.31-41.06,25.83-6.64-8.66-17.27-15.72-25.83-22.52-16.22-13.91-32.45-27.81-48.67-41.72-7.61-6.29-15.23-12.58-22.85-18.87,2.76-7.06,5.52-14.13,8.28-21.19ZM1387.03,0c9.6.11,19.21.22,28.81.33l-.66.99c-4.99,2.2-8.35,7.56-14.24,8.61-3.78-1.95-12.02-6.15-13.91-9.93ZM1774.77,0c15.89.11,31.79.22,47.68.33-9.05,18.1-18.1,36.2-27.15,54.3-1.75,3.44-9.81,17.05-9.27,19.87,3.15,3.99,32.94,15.58,39.73,18.54,33.14,14.47,65.58,31.51,97.35,47.68l1.99-.99c.88-1.99,1.77-3.97,2.65-5.96h.33v50.66h-.33c-14.65-4.19-27.9-13.58-41.39-19.54-31.4-13.87-62.52-29.69-91.72-46.69-12.69-6.51-25.39-13.02-38.08-19.54-3.67-1.97-7.89-3.06-10.6-5.96,10.11-30.2,21.34-60.65,28.81-92.71ZM1859.86,0h10.93c-.59,2.32-1.72,3.67-.66,5.96,19.42,11.59,38.85,23.18,58.28,34.77v38.74c-5.63,8.62-10.47,18.6-15.23,28.14-30.02-13.8-60.04-27.59-90.06-41.39,1.1-6.07,7.21-12.34,10.26-17.22,6.91-11.02,12.21-22.66,18.87-34.1,2.65-4.55,6.29-9.24,7.62-14.9ZM1061.22,14.57c-19.98,4.19-39.96,8.39-59.93,12.58,3.09,50.1,6.18,100.22,9.27,150.33,1.59,10.45-.05,44.7,3.97,50.66,5.85-4.64,11.7-9.27,17.55-13.91,12.03-8.61,25.56-16.93,39.73-23.18,10.87-4.79,22.31-9.22,34.1-12.91,7.28-1.88,14.57-3.75,21.85-5.63.15-10.74,3.61-42.31,0-50.33h-.33c-7.99.78-15.81,4.65-22.52,7.28-20.75,8.16-38.7,17.41-56.95,27.48l-.66-.33c-.77-20.86-1.55-41.72-2.32-62.58-.04-4.21-2.01-20.52,0-22.85,4.83-1.95,12.18-.46,16.56-2.65.44-13.13.88-26.27,1.32-39.4,0-3.64,1.18-12.51-.99-14.24l-.66-.33ZM954.93,47.68c-21.63,8.72-43.27,17.44-64.9,26.16-50.45,20.75-102.9,39.23-154.3,59.27-21.08,7.73-42.16,15.45-63.24,23.18-5.69,2.23-20.51,5.35-23.84,9.27,4.19,14.13,8.39,28.26,12.58,42.38,8.73-.39,22.17-8.12,30.13-11.26,22.07-8.17,44.15-16.34,66.22-24.5,70.19-23.84,140.4-47.68,210.59-71.52.04-12.35-5.15-25.45-7.95-36.42-1.32-5.41-2.65-10.82-3.97-16.22l-1.32-.33ZM206.95,79.8c-14.02,14.02-28.04,28.04-42.05,42.05-1.99,11.48-3.97,22.96-5.96,34.44-3.97,23.84-7.95,47.68-11.92,71.52-1.55,10.15-3.09,20.31-4.64,30.46,4.34,5.14,22.02,9.52,29.14,12.58,18.76,8.28,37.53,16.56,56.29,24.83,7.86,3.44,20.21,11.38,29.14,12.25,5.63-9.38,11.26-18.76,16.89-28.14,1.99-3.27,5.57-6.7,6.29-10.93l-.99-1.32c-19.09-9.27-38.19-18.54-57.28-27.81-8.04-3.55-25.67-9.39-31.46-14.57,4.64-31.67,9.27-63.36,13.91-95.03h1.32c5.85,4.97,11.7,9.93,17.55,14.9,12.07,9.48,23.39,19.74,36.09,28.81,9.63,6.88,18.78,15.54,29.47,21.19,3.86-3.92,25-34.5,25.83-39.07-5.67-7.12-16.05-12.55-23.51-17.88-18.59-13.27-36.92-27.05-55.96-40.06-5.15-3.52-22.3-17.92-28.14-18.21ZM1214.52,132.11c-14.92,23.75-31.87,45.99-46.69,70.2-3.65,5.96-15.59,20.69-16.56,27.15l1.32,1.66c4.19,2.98,8.39,5.96,12.58,8.94,11.92,8.72,23.84,17.44,35.76,26.16,4.37,3.1,16.05,9.49,18.21,13.91-1.32,17.77-2.65,35.54-3.97,53.31-1.88,34.54-3.75,69.1-5.63,103.64-.33,14.35-.66,28.7-.99,43.04-4.75,5.41-9.49,10.82-14.24,16.22-11.58,14.38-24.51,28.59-37.75,41.39-10.82-5.96-21.63-11.92-32.45-17.88-24.17-13.46-48.35-26.93-72.51-40.4-11.37-6.51-22.74-13.02-34.1-19.54-2.45-1.43-4.72-3.81-7.95-4.3,2.14,21.68,11.69,37.8,20.53,52.98,4.3,8.72,8.61,17.44,12.91,26.16,4.52,5.97,14.55,10.04,20.86,14.24,15.27,10.16,30.51,20.61,46.02,30.79,12.69,8.17,25.39,16.34,38.08,24.5,4.2,2.57,8.67,6.73,13.91,7.95,21.24-29.61,45.71-55.15,68.21-83.11,10.59-12.03,21.19-24.06,31.79-36.09.55-12.14,1.1-24.28,1.66-36.42.22-10.37.44-20.75.66-31.12v-83.44c3.69-19.65,12.9-38.11,19.87-55.63-6.29-7.69-15.98-13.41-23.84-19.54-12.58-10.37-25.17-20.75-37.75-31.12-7.28-6.07-14.57-12.14-21.85-18.21-.83-2.6,3.93-7.05,4.97-8.61,5.35-8.06,10.55-19.68,17.88-25.83h1.32c48.89,40.28,97.79,80.57,146.68,120.86-10.15,26.49-20.31,52.98-30.46,79.47-3.64,8.5-7.28,17-10.93,25.5,15.78,14.13,31.57,28.26,47.35,42.38,9.35,7.55,16.35,19.29,26.82,25.5l.99-.66c4.64-11.81,9.27-23.62,13.91-35.43,10.6-26.7,20.68-53.24,31.79-79.14,6.62-16.66,13.25-33.33,19.87-50,5.19-4.3,10.38-8.61,15.56-12.91,10.98-8.66,21.3-18.16,32.45-26.82,22.51-18.43,45.03-36.87,67.55-55.3,17.88-13.91,35.76-27.81,53.64-41.72-1.5-6.57-15.19-20.35-19.2-27.48h-1.32c-17.22,12.69-34.44,25.39-51.65,38.08-26.43,19.95-51.13,42.3-77.15,62.58-15.45,13.02-30.91,26.05-46.36,39.07-3.86,10.93-7.73,21.85-11.59,32.78-11.06,27.9-21.72,56.41-33.11,84.77-3.3-.54-18.07-9.25-19.54-11.59,7.73-25.16,15.45-50.33,23.18-75.49,1.58-5.05,9.22-23.5,7.95-27.81-2.13-4.29-7.91-7.39-11.59-10.26-11.47-8.94-22.45-18.54-34.1-27.48-34.21-27.37-68.43-54.75-102.65-82.12-11.37-9.16-22.74-18.32-34.1-27.48-4.02-3.13-8.55-9.27-14.24-10.26ZM115.56,133.77c-10.26,12.91-20.53,25.83-30.79,38.74-3.09,3.53-6.18,7.06-9.27,10.6-2.65,20.09-5.3,40.18-7.95,60.26-4.91,28.09-4.65,58.14-9.27,87.08-.88,12.36-1.77,24.72-2.65,37.08-.88,16.33-1.77,32.67-2.65,49-.88,12.58-1.77,25.17-2.65,37.75-2.69,17.08-4.46,37.37-1.66,55.3.77,11.92,1.55,23.84,2.32,35.76,17.66-5.63,35.32-11.26,52.98-16.89,41.95-14.51,83.65-27.88,125.49-41.06,24.94-8.06,49.89-16.12,74.83-24.17-5.41-28.03-10.82-56.07-16.22-84.1-2.37-10.05-3.55-29.33-7.95-37.08-28.8-8.61-57.62-17.22-86.42-25.83-5.62-1.76-25.9-10.01-30.46-8.28-1.88,9.16-3.75,18.32-5.63,27.48,2.97,4.25,18.69,7.35,24.5,9.6,23.51,8.39,47.02,16.78,70.53,25.16,1.77,17.11,3.53,34.22,5.3,51.32.91,5.06,3.73,15.2,1.66,19.87-45.58,14.68-91.17,29.36-136.75,44.04-10.7,3.42-21.41,6.84-32.12,10.26-2.44.87-8.96,3.83-10.26,1.99,4.86-39.95,9.71-79.91,14.57-119.86,4.75-36.75,9.49-73.51,14.24-110.26.88-20.09,1.77-40.18,2.65-60.26,1.43-24.5,2.87-49.01,4.3-73.51h-.66ZM959.9,159.93c-22.07,6.95-44.15,13.91-66.22,20.86-50.1,16.33-100.22,32.67-150.33,49-21.3,7.06-42.61,14.13-63.9,21.19v.33c12.8,55.73,25.61,111.48,38.41,167.21,3.09,14.13,6.18,28.26,9.27,42.38,1.03,4.3,1.36,14.41,4.64,16.56,15.45,1.88,30.91,3.75,46.36,5.63,40.61,4.75,81.24,9.49,121.85,14.24,29.36,42.23,58.84,83.55,89.4,124.17,10.35,13.76,21.49,26.8,31.79,40.4,4.19,5.19,8.39,10.38,12.58,15.56,10.82-4.75,21.63-9.49,32.45-14.24,4.02-1.71,10.9-2.8,13.58-5.96l-.66-.66c-4.52-6.07-9.05-12.14-13.58-18.21-11.26-14.9-22.52-29.8-33.77-44.7-34.1-45.91-68.21-91.83-102.31-137.74-36.97-3.31-73.95-6.62-110.92-9.93-14.13-1.21-28.26-2.43-42.38-3.64-4.64-.74-9.74.04-13.24-1.66-8.5-40.83-17-81.68-25.5-122.51-2.1-9.49-4.19-18.98-6.29-28.48-.68-2.78-2.57-8.96-.66-10.6,36.86-12.8,73.73-25.61,110.59-38.41,22.62-7.61,45.25-15.23,67.88-22.85-7.84,48.12-15.67,96.25-23.51,144.37-14.02-.33-28.04-.66-42.05-.99-6.22-.94-13.94,1.24-18.87-.99-3.09-13.02-6.18-26.05-9.27-39.07l.66-.66c8.63-.89,25.92-8.91,32.78-7.62.16,2.47.93,8.14,2.65,9.27,1.69.56,17.77-3.11,18.87-4.3-2.21-14.02-4.42-28.04-6.62-42.05-6.51,1.43-13.02,2.87-19.54,4.3-15.69,4.04-31.12,7.13-46.02,11.59-9.05,2.32-18.1,4.64-27.15,6.95,4.52,17.66,9.05,35.32,13.58,52.98,3.53,13.46,7.06,26.93,10.6,40.4,1.1,3.97,2.21,7.95,3.31,11.92,41.72-6.18,83.44-12.36,125.16-18.54,1.66-8.28,3.31-16.56,4.97-24.83,3.2-17,6.4-34,9.6-50.99,10.51-47.93,18.9-97.49,24.17-149.33l-.33-.33h-1.99ZM1508.55,363.23c5.29-.29,9.7-3.57,13.91-5.3,10.82-4.41,21.63-8.83,32.45-13.24,38.85-16.11,77.71-32.23,116.55-48.34,1.03-4.87-16.85-29.97-20.2-35.1-5.2.31-10.13,4.09-13.91,6.29-8.94,4.3-17.88,8.61-26.82,12.91-17.66,8.17-35.32,16.34-52.98,24.5-13.02,5.41-26.05,10.82-39.07,16.22-3.31,14.02-6.62,28.04-9.93,42.05ZM1713.51,267.54c5.08,19.53,10.15,39.07,15.23,58.61-.48,1.39-18.06,8.05-20.86,9.27-20.31,8.61-40.62,17.22-60.92,25.83-37.96,16-75.94,32.01-113.9,48.01-19.53,7.84-39.07,15.67-58.61,23.51-4.24,3.09-7.06,13.18-9.27,18.21-6.29,12.69-12.58,25.39-18.87,38.08-2.35,4.62-6.36,10-7.28,15.56h.99c84.2-33.66,168.43-67.33,252.64-100.99,22.07-8.72,44.15-17.44,66.22-26.16,6.18-2.53,20.83-5.82,24.5-10.26-9.05-28.91-18.1-57.84-27.15-86.75-1.72-2.86-8.42-3.21-11.92-4.3-9.32-2.91-20.31-8.08-30.79-8.61ZM1020.82,271.84c-5.61,5.78-9.01,14.07-13.24,21.19-10.08,16.95-19.26,34.42-27.15,53.64-1.65,4.02-10.24,22.3-8.94,26.82,7.28,12.36,14.57,24.72,21.85,37.08,1.27-.44.69,0,1.32-.99,2.54-7.06,5.08-14.13,7.62-21.19,5.56-12.93,13.01-25.34,20.2-36.75,2.98-4.73,9.37-16.85,13.91-19.2,4.55-1.47,19.76,2.99,24.17,4.3,15,4.46,52.75,11.7,69.53,2.98v-.33c-2.04-10.38-6.18-34.47-11.26-41.06-2.39-3.1-16.93-6.16-21.52-7.95-21.71-8.44-49.48-16.6-76.49-18.54ZM1163.53,374.16c-10.7,1.1-21.41,2.21-32.12,3.31v.33c1,6.14,3.52,12.52,4.64,19.54,4.18,26.26-12.42,38.06-19.54,52.65,7.17,7.61,14.35,15.23,21.52,22.85,5.58-1.85,9.96-11.36,13.24-15.89,11.29-15.59,24.94-37.8,19.87-66.88-1-5.75-1.02-11.51-3.31-15.89h-4.3ZM1067.18,376.14c-3.8,1.68-7.61,1.93-9.93,4.97-12.18,15.94,3.47,48.38,27.48,38.41,9.62-3.99,21.12-20.98,12.58-34.1-5.04-7.75-17.01-9.53-30.13-9.27ZM149.66,389.39c-.88,4.75-1.77,9.49-2.65,14.24-1.77,11.26-3.53,22.52-5.3,33.77l.66.33c21.52-5.52,43.05-11.04,64.57-16.56,8.5-2.32,17-4.64,25.5-6.95-4.75-3.93-19.11-6.16-25.83-8.28-12.28-3.87-25.16-7.31-38.08-11.26-6.29-1.77-12.58-3.53-18.87-5.3ZM1831.72,398.33c-18.65,6.51-37.31,13.02-55.96,19.54-38.63,14.02-77.26,28.04-115.89,42.05-14.24,5.19-28.48,10.38-42.71,15.56-4.58,1.79-12.18,2.53-15.23,5.96,15.78,31.89,31.57,63.8,47.35,95.69,14.24,30.46,28.48,60.93,42.71,91.39,7.73,18.1,15.45,36.2,23.18,54.3,17.88-8.94,35.76-17.88,53.64-26.82,33.41-17.04,67.93-32.34,100-50.99,10.37-5.41,20.75-10.82,31.12-16.22,3.46-2.02,7.22-2.94,9.93-5.63-17.76-55.48-35.53-111.16-56.29-164.89-4.75-14.02-9.49-28.04-14.24-42.05-1.77-5.06-2.91-14.51-6.62-17.88h-.99ZM1814.83,440.05h1.99c17.22,53.19,34.44,106.4,51.65,159.6-3.46,5.39-25.86,14.5-32.78,18.54-24.06,12.47-48.12,24.95-72.18,37.42-8.83,4.64-17.66,9.27-26.49,13.91-2.95,1.59-5.68,4.11-9.6,4.64-5.43-17.88-17.13-34.3-24.5-50.99-18.34-41.52-39.76-81.32-59.93-121.52,2.39-2.42,7.15-2.63,10.6-3.97,10.82-3.86,21.63-7.73,32.45-11.59,42.93-15.34,85.87-30.68,128.8-46.02ZM1335.38,483.76c-13.57,18.1-27.15,36.2-40.73,54.3-26.71,38.41-53.42,76.82-80.13,115.23-14.9,22.62-29.8,45.25-44.7,67.88-4.64,7.61-9.27,15.23-13.91,22.85l.33.99c24.72,17.88,49.45,35.76,74.17,53.64,19.09-24.94,38.19-49.89,57.28-74.83,32.56-42.38,65.12-84.77,97.68-127.15,12.14-14.9,24.28-29.8,36.42-44.7-1-4.29-16.2-13.63-20.2-16.56-15.45-12.14-30.91-24.28-46.36-36.42-4.39-3.33-14.64-14.4-19.87-15.23ZM1785.7,487.07c-30.02,8.61-60.04,17.22-90.06,25.83v.33c14.46,32.56,28.92,65.12,43.38,97.68,25.93-11.92,51.88-23.84,77.81-35.76-.06-7.2-3.86-13.95-5.96-19.87-5.08-15.12-10.15-30.24-15.23-45.36-1.98-5.61-4.53-19.5-8.28-22.85h-1.66ZM290.72,510.91c-17,6.07-34,12.14-50.99,18.21-43.01,17.69-86.34,34.36-131.78,50-19.12,6.58-38.25,12.06-56.62,19.2-7,2.72-16.23,3.65-21.85,7.95.11,10.59.22,21.19.33,31.79,0,3.61-.84,9.97.99,11.92,22.4-7.95,44.81-15.89,67.22-23.84,47.5-18.48,95.75-35.06,142.38-53.64,15.41-6.14,30.83-11.71,45.03-18.87,3.71-1.87,11.94-3.8,13.91-7.28,1.28-2.26-5.51-32.73-6.95-35.43h-1.66ZM1564.84,515.54c-37.85,25.16-75.72,50.33-113.57,75.49,4.97,7.17,9.93,14.35,14.9,21.52,9.71,15.67,19.43,31.35,29.14,47.02,14.02,25.82,28.04,51.66,42.05,77.48,5.08,10.04,10.15,20.09,15.23,30.13,8.02-.26,26.63-10.31,34.1-13.58,17.09-7.47,33.53-15.58,50-22.85,8.86-3.91,18.38-7.69,26.16-12.91-.65-7.1-6.38-13.88-9.27-19.54-7.5-14.46-15.01-28.92-22.52-43.38-25.45-43.69-41.93-93.07-64.57-139.4h-1.66ZM1769.8,515.87l.99.33c1.31,6.65,8.64,33.01,7.28,36.75-8.72,2.87-17.44,5.74-26.16,8.61-3.86-10.59-7.73-21.19-11.59-31.79,9.82-4.64,19.65-9.27,29.47-13.91ZM643.02,520.84c-9.16,2.76-18.32,5.52-27.48,8.28-21.16,6.86-41.54,14.42-58.61,25.16-5.18,3.26-17.42,9.97-20.2,14.9-.9,3.5,9.65,13.59,12.25,15.89,10.09,8.95,20.45,18.14,32.12,25.5,6.4,4.08,12.8,8.17,19.2,12.25l.66.99c-6.21,6.65-10.85,16.13-18.54,21.19v1.32c7.28,9.93,14.57,19.87,21.85,29.8,3.89-.66,6.23-3.7,8.94-5.63,12.95-9.2,20.94-17.15,26.49-34.1,1.35-4.14,5.43-13.64,3.31-18.87-2.65-3.31-5.3-6.62-7.95-9.93-10.8-13.86-23.97-24.62-36.09-37.08,3.31-2.54,6.62-5.08,9.93-7.62,12.31-9.31,23.51-16.8,39.73-22.85,5.28-1.97,17.5-6.25,14.57-13.58-6.88-1.7-12.29-5.42-20.2-5.63ZM1343,532.76c3.7.52,20.13,14.76,22.52,17.88-2.15,6.1-7.99,11.21-11.59,16.22-9.27,12.69-18.54,25.39-27.81,38.08-31.45,45.14-62.91,90.29-94.37,135.43-3.99-1.63-17.45-11.46-19.54-14.9,14.02-20.97,28.04-41.94,42.05-62.91,28-44.28,57.91-87.91,88.74-129.8ZM485.41,543.03c-62.91,21.08-125.83,42.16-188.73,63.24,11.04,22.07,22.08,44.15,33.11,66.22,24.31,48.05,47.14,97.13,68.87,147.01,7.61,17.99,15.23,35.98,22.85,53.97,2.84,6.68,5,18.07,10.26,22.52,42.33-13.38,81.41-28.9,119.53-45.69,13.56-5.97,27.5-11.38,39.73-18.87-.05-9.22-5.91-19.42-8.94-27.15-5.96-16.89-11.92-33.78-17.88-50.66-15.56-44.03-31.13-88.08-46.69-132.11-5.3-13.91-10.6-27.81-15.89-41.72-4.88-11.53-10.86-23.58-13.91-36.42-.77-.11-1.55-.22-2.32-.33ZM787.72,543.36l-1.32,1.32c-2.65,8.94-5.3,17.88-7.95,26.82-6.97,22.2-13.02,44.68-19.87,67.55-13.13,44.81-26.27,89.63-39.4,134.43,5.85-1.66,11.7-3.31,17.55-4.97,9.71-2.91,22.26-4.06,30.13-9.27,12.03-38.63,24.06-77.26,36.09-115.89,2.45-7.91,9.62-40.6,13.58-44.37,12.36,3.64,24.72,7.28,37.08,10.93,5.41,1.32,10.82,2.65,16.22,3.97,4.52,7.61,9.05,15.23,13.58,22.85,9.49,15.78,18.98,31.57,28.48,47.35,4.78,8,8.15,19.27,14.57,25.83,12.47-3.42,24.95-6.84,37.42-10.26,4.45-1.38,12.03-1.93,14.57-5.3-3.28-10.39-12.29-20.19-17.88-29.14-13.09-20.94-26.24-41.61-39.73-61.92-7.84-12.14-15.67-24.28-23.51-36.42-10.26-2.43-20.53-4.86-30.79-7.28-17.66-3.86-35.32-7.73-52.98-11.59-8.61-1.55-17.22-3.09-25.83-4.64ZM699.64,544.68c-9.08,5.49-19.64,8.51-28.48,13.91.44,5.96.88,11.92,1.32,17.88,1.85,12.35-.91,25.63-1.66,36.09l.66.66c4.9.54,30.76,6.41,32.45,4.3,2.37-4.08,2.22-10,3.31-15.23,4.33-20.75,1.47-42.96-6.29-57.28l-1.32-.33ZM1537.36,581.1l1.66.33c1.74,9.41,8.26,18.52,11.92,26.82,9.27,20.31,18.54,40.62,27.81,60.92,3.22,7.36,11.79,19.46,12.25,27.81-8.17,3.75-16.34,7.51-24.5,11.26-13.68-27.81-27.37-55.63-41.06-83.44-2.22-4.36-13.76-25.02-12.25-28.48,8.06-5.08,16.12-10.15,24.17-15.23ZM455.61,601.3c1,.43.74.21,1.32.99,5.3,14.02,10.6,28.04,15.89,42.05,13.58,34.82,25.06,71.37,38.74,106.62,5.08,13.8,10.15,27.59,15.23,41.39,1.72,4.76,5.84,11.23,5.3,16.56-15.12,6.84-30.24,13.69-45.36,20.53-7.31,3.22-15.46,9.31-23.84,10.6l-.99-.99c-7.39-17.44-14.79-34.88-22.18-52.32-14.86-34.6-28.84-69.14-45.69-102.31-6.73-13.68-13.47-27.37-20.2-41.06-2.03-3.96-8.09-11.14-7.28-15.89,17.1-2.14,38.25-10.83,54.3-15.89,11.59-3.42,23.18-6.84,34.77-10.26ZM274.16,616.53c-65.55,23.29-131.13,46.58-196.68,69.86l-.33,1.99c17.15,37.6,35.59,74.83,51.98,113.57,6.4,14.46,12.8,28.92,19.2,43.38,2.66,6.08,4.58,14.62,8.94,19.2l.99-.66v-.33c-2.21-8.06-4.42-16.12-6.62-24.17-7.88-30.62-16.61-58.29-27.48-86.42-3.53-10.15-7.06-20.31-10.6-30.46-1.65-4.27-5-10.5-4.64-15.23,35.4-12.89,70.01-25.93,104.63-39.73,11.7-4.64,23.4-9.27,35.1-13.91,4.01-1.64,8.07-4.37,12.91-4.97l.66.66c6.18,20.2,12.36,40.4,18.54,60.59,10.26,35.43,20.53,70.86,30.79,106.29,4.19,14.35,8.39,28.7,12.58,43.04l-.99.66c-45.8,14.35-91.61,28.7-137.41,43.04-11.81,3.75-23.62,7.51-35.43,11.26-4.3,1.43-8.61,2.87-12.91,4.3-.88,11.81-1.77,23.62-2.65,35.43,53.97-17,107.95-34,161.91-50.99,15.89-4.97,31.79-9.93,47.68-14.9,5.61-1.75,13.57-2.33,17.88-5.63-2.21-7.39-4.42-14.79-6.62-22.18-5.85-18.1-11.7-36.2-17.55-54.3-13.57-41.83-27.15-83.67-40.73-125.49-7.17-21.3-14.35-42.61-21.52-63.9h-1.66ZM822.82,661.23c-2.43,4.78-2.74,10.89-4.3,16.56-3.64,14.9-7.28,29.8-10.93,44.7-1.36,5.27-6.33,19-5.3,23.84h.33c20.2-5.96,40.4-11.92,60.59-17.88,9.82-2.98,19.65-5.96,29.47-8.94-.34-4.38-3.12-8.09-4.64-11.59-3.75-8.72-7.51-17.44-11.26-26.16-1.5-3.49-2.34-9.55-5.3-11.59-4.95-3.28-40.18-8.58-48.67-8.94ZM687.72,670.17c-10.48,1.88-20.97,3.75-31.46,5.63-6.77,19.53-17.05,38.37-27.15,55.3-3.73,6.25-13.46,17.66-14.57,24.83,6.62,3.86,13.25,7.73,19.87,11.59,5.43-1.85,14.27-16.97,17.55-22.18,11.23-17.85,21.31-36.38,30.13-56.95,2.54-6.07,5.08-12.14,7.62-18.21h-1.99ZM1092.34,687.39c-54.08,24.28-108.17,48.57-162.25,72.84-18.54,7.95-37.09,15.89-55.63,23.84,9.71,2.87,19.43,5.74,29.14,8.61,7.84,2.43,15.67,4.86,23.51,7.28,48.34-22.4,96.69-44.81,145.03-67.22l.33.99c14.68,46.57,29.36,93.16,44.04,139.73,3.53,11.48,7.06,22.96,10.6,34.44.88,2.86,4.19,8.18,2.98,12.25-6.07,9.82-12.14,19.65-18.21,29.47-12.91,22.07-25.83,44.15-38.74,66.22-29.25-9.93-58.5-19.87-87.75-29.8-17.44-5.41-34.88-10.82-52.32-16.22,3.64-30.57,7.28-61.15,10.93-91.72,22.29-12.8,44.59-25.61,66.88-38.41,3.83-2.29,19.36-12.96,22.52-11.92,8.39,19.98,16.78,39.96,25.16,59.93,3.36,7.82,9.57,16.59,10.6,25.83-7.35,9.88-21.69,24.95-35.76,27.81-14.75,3-35.21-2.22-37.75-12.91-4.1-17.27,15.73-27.57,18.87-38.08-2.55-1.4-9.71-4.39-12.58-3.64-2.96.93-3.81,3.89-5.96,5.63-12.16,9.82-24.85,26.65-15.56,47.68,10.59,23.99,52.14,35.24,79.8,18.87,12.04-7.13,19.68-18.07,26.16-30.79,1.41-2.76,6.4-9.48,5.3-13.58-15.34-39.84-30.68-79.69-46.02-119.53-4.76.56-8.7,3.61-12.58,5.3-9.38,4.08-18.76,8.17-28.14,12.25-21.3,9.49-42.61,18.98-63.9,28.48-9.38,4.3-18.76,8.61-28.14,12.91-5.19,36.2-10.38,72.41-15.56,108.61-1.5,7.6-7.52,34.49-5.96,40.73,30.46.77,60.93,1.55,91.39,2.32,14.35,5.3,28.7,10.6,43.04,15.89,14.79,5.74,29.58,11.48,44.37,17.22,4.75,2.03,12.34,7.78,17.88,6.95,18.87-27.37,37.75-54.75,56.62-82.12,4.58-6.79,20.73-24.88,22.18-31.79-24.39-81.34-48.79-162.7-73.18-244.03l-1.32-.33ZM1447.96,691.7c-18.1,22.95-36.2,45.92-54.3,68.87-5.89,7.8-18.63,27.15-26.16,31.79-12.14-11.7-24.28-23.4-36.42-35.1-3.99-3.98-9.35-12.4-14.9-14.24l-.33.33c-.36,7.67-6.35,24.13-3.97,30.46,6.4,7.28,12.8,14.57,19.2,21.85,9.82,13.35,19.65,26.71,29.47,40.06,3.53,4.64,7.06,9.27,10.6,13.91,4.06-2.56,6.49-8.02,9.27-11.92,5.74-7.61,11.48-15.23,17.22-22.85,15.8-22.18,33.89-42.71,50.66-63.9,4.64-5.86,24.93-25.5,26.16-31.12-2.61-4.04-23-27.02-26.49-28.14ZM228.14,693.02c-18.43,6.62-36.87,13.25-55.3,19.87-4.83,1.9-11.27,2.77-14.9,5.96,14.13,44.92,28.26,89.85,42.38,134.76h.33c12.47-4.08,24.95-8.17,37.42-12.25,9.82-3.31,19.65-6.62,29.47-9.93-.53-9.75-4.73-19.5-7.28-28.14-6.21-20.99-11.4-41.86-17.55-62.25-3.2-12.25-6.4-24.5-9.6-36.75-1.15-3.88-1.41-8.19-3.31-11.26h-1.66ZM222.18,724.15l1.66.33c4.64,20.31,9.27,40.62,13.91,60.92,1.44,5.8,6.5,17.91,4.3,23.51-7.09.97-24.95,7.09-30.13,5.96-6.29-26.93-12.58-53.86-18.87-80.79,9.71-3.31,19.43-6.62,29.14-9.93ZM1874.43,752.62l1.66.66c7.17,15.78,14.35,31.57,21.52,47.35,10.51,24.22,18.37,51.48,30.79,74.5v51.98c-4.47-.19-8.56,7.13-13.24,5.3-1.62-12.27-12.65-30.98-17.55-42.05-13.35-28.91-26.71-57.84-40.06-86.75-4.21-9.59-15.45-25.54-16.89-35.76l.99-.66c10.93-4.86,21.85-9.71,32.78-14.57ZM0,828.78v-74.83l.99.66c6.51,16.33,13.02,32.67,19.54,49,1.69,4.61,5.46,16.05,2.98,21.85-7.84,1.1-15.67,2.21-23.51,3.31ZM1734.37,760.9c-32.56,12.58-65.12,25.17-97.68,37.75-6.6,2.71-29.22,8.97-32.78,12.91.95,7.1,7.52,15.72,10.93,21.52,9.16,17,18.32,34,27.48,50.99,34.32,63.13,68.65,126.27,102.98,189.4,5.62-1.1,17.61-15.29,21.85-19.54,18.46-18.46,37.87-36.9,54.3-57.28,2.56-3.17,21.5-20.67,20.86-23.51-6.4-12.14-12.8-24.28-19.2-36.42-14.24-28.58-28.48-57.18-42.71-85.76-11.04-22.73-22.08-45.48-33.11-68.21-2.23-4.37-8.42-21.36-12.91-21.85ZM1296.31,810.57c-8.5,4.97-17,9.93-25.5,14.9,2.43,12.47,4.86,24.95,7.28,37.42.82,3.74,2.95,9.24,1.99,13.24-28.58-1.43-57.18-2.87-85.76-4.3v1.99c1.64,5.31,5.74,31.83,8.61,33.77,13.46.33,26.93.66,40.4.99,30.02.33,60.04.66,90.06.99v-.33c-8.94-24.61-17.88-49.23-26.82-73.84-1.57-4.42-6.91-24.02-10.26-24.83ZM1702.92,815.53c3.62,1.77,5.36,9.01,7.28,12.58,5.3,10.04,10.6,20.09,15.89,30.13,21.41,39.62,42.83,79.25,64.24,118.87-9.71,9.93-19.43,19.87-29.14,29.8h-.66c-12.64-26.63-29.86-51.7-45.69-75.82-19.09-31.23-38.19-62.47-57.28-93.71l.66-.99c14.9-6.95,29.8-13.91,44.7-20.86ZM698.32,817.52c-13.68,6.4-27.37,12.8-41.06,19.2,4.3,5.63,8.61,11.26,12.91,16.89,5.63,8.39,11.26,16.78,16.89,25.16,6.18,10.04,12.36,20.09,18.54,30.13h.33l.33-.66c.44-5.41.88-10.82,1.32-16.22,1.21-12.03,2.43-24.06,3.64-36.09.44-5.08.88-10.15,1.32-15.23-2.32-3.75-4.64-7.51-6.95-11.26-2.28-3.8-3.93-9.19-7.28-11.92ZM62.91,1080.75H24.17c3.75-25.16,7.51-50.33,11.26-75.49,1.18-5.78,5.73-23.89,3.64-28.81-13.02-3.42-26.05-6.84-39.07-10.26v-33.44c18.76,6.29,37.53,12.58,56.29,18.87,5.9,1.85,16.75,2.91,20.86,6.95-4.75,40.72-9.49,81.46-14.24,122.18ZM197.67,1080.75c-.44-16.44-.88-32.89-1.32-49.34-.24-5.51-2.11-15.26.33-19.54,30.68-12.58,61.37-25.17,92.05-37.75,5.36-2.2,27.69-13.44,31.79-11.92,16.22,30.02,32.45,60.04,48.67,90.06,3.47,5.92,14.33,22.2,15.23,28.48h-70.2c-7.39-17.11-14.79-34.22-22.18-51.32-1.7-3.88-4.23-14.37-8.61-15.23-18.54,9.6-37.09,19.21-55.63,28.81,3.64,12.58,7.28,25.17,10.93,37.75h-41.06ZM1481.4,1080.75h-39.07c-7.39-24.5-14.79-49.01-22.18-73.51l-.66-.33c-29.47,5.63-58.94,11.26-88.41,16.89-10.94,2.41-30.7,2.79-39.07,7.95-3.61,11.99-8.58,24.08-12.91,36.42-1.39,3.96-3.73,7.79-3.97,12.58h-71.85v-.99c9.82-26.38,19.65-52.76,29.47-79.14,74.71-11.92,149.45-23.84,224.16-35.76l.99.99c2.98,14.35,5.96,28.7,8.94,43.04,4.86,23.95,9.71,47.9,14.57,71.85ZM2.98,1080.75H0v-80.79c2.48.31,6.84,1.14,7.95,2.98-1.66,25.93-3.31,51.88-4.97,77.81ZM1401.6,1080.75h-53.97c-5.04,0-16.75,1.77-20.2-.66,1.51-3.79,6.07-20.33,8.61-21.85,18.54-4.52,37.09-9.05,55.63-13.58,2.93,4.99,9.44,29.48,9.93,36.09Z"/>
  </g>
</svg>